<svg width="50" height="50" viewBox="0 0 50 50" fill="none" xmlns="http://www.w3.org/2000/svg">
<path fill-rule="evenodd" clip-rule="evenodd" d="M37.5106 0.834867C37.1508 1.21798 37.2385 1.50842 38.2343 3.23183C38.7505 4.12519 39.1729 4.89655 39.1729 4.94615C39.1729 4.99564 30.5596 10.8231 20.0321 17.896C9.5048 24.9689 0.813674 30.8455 0.718538 30.9552C0.335032 31.3974 0.700163 32.2193 1.28016 32.2193C1.41738 32.2193 8.92134 28.6567 17.9556 24.3025C42.6675 12.3921 43.1673 12.1517 43.2607 12.1329C43.3084 12.1233 43.7935 12.8798 44.3386 13.8142C45.4215 15.6701 45.6136 15.86 46.1738 15.6279C46.3296 15.5634 46.5065 15.4135 46.567 15.2949C46.7068 15.0203 49.5459 4.40991 49.5459 4.16145C49.5459 3.60872 49.4057 3.55774 43.7182 2.0414C37.9578 0.505697 37.8413 0.482975 37.5106 0.834867ZM35.5625 21.3973L35.32 21.6397V35.3806V49.1215L35.5625 49.364L35.805 49.6065H42.433H49.0609L49.3034 49.364L49.5459 49.1215V35.3806V21.6397L49.3034 21.3973L49.0609 21.1548H42.433H35.805L35.5625 21.3973ZM18.1754 29.3005L17.9328 29.543V39.3323V49.1215L18.1754 49.364L18.4178 49.6065H25.0458H31.6737L31.9162 49.364L32.1587 49.1215V39.3323V29.543L31.9162 29.3005L31.6737 29.058H25.0458H18.4178L18.1754 29.3005ZM0.788186 37.2038L0.545654 37.4462V43.2839V49.1215L0.788186 49.364L1.03062 49.6065H7.65859H14.2866L14.529 49.364L14.7715 49.1215V43.2839V37.4462L14.529 37.2038L14.2866 36.9613H7.65859H1.03062L0.788186 37.2038Z" fill="#FCFFFE" fill-opacity="0.8"/>
</svg>