<svg width="58" height="55" viewBox="0 0 58 55" fill="none" xmlns="http://www.w3.org/2000/svg">
<path fill-rule="evenodd" clip-rule="evenodd" d="M46.0438 3.31966C39.658 4.66326 34.4105 5.7832 34.3827 5.80854C34.3548 5.83398 35.8673 7.39046 37.7437 9.26759L41.1552 12.6804L37.7152 16.119C35.8232 18.0103 34.2988 19.5813 34.3276 19.6102C34.3565 19.639 39.5787 18.5912 45.9326 17.2819L57.4853 14.9012L54.0391 11.4532L50.5929 8.0051L54.1536 4.46505C56.1121 2.51803 57.7009 0.914109 57.6844 0.900998C57.6679 0.887777 52.4296 1.97617 46.0438 3.31966ZM20.2389 4.4856L16.712 8.01376L21.4068 12.7075L26.1014 17.4012L29.6557 13.8457L33.21 10.2902L28.5445 5.62377C25.9787 3.05734 23.8537 0.95744 23.8226 0.95744C23.7913 0.95744 22.1787 2.54514 20.2389 4.4856ZM10.1438 14.5957C7.84888 16.9024 5.74476 19.0899 5.46822 19.4565C0.4058 26.1664 -0.476602 34.8293 3.14811 42.2332C8.37541 52.9102 21.1841 57.3858 31.9094 52.2826C34.8851 50.8668 35.9726 49.9887 41.0437 44.9071L44.9875 40.955L40.298 36.2655L35.6085 31.5761L31.7433 35.4102C28.7451 38.3843 27.691 39.36 27.0447 39.76C23.6774 41.8438 19.4297 41.3455 16.6949 38.5457C15.0153 36.8265 14.3177 35.095 14.3303 32.6781C14.3457 29.7788 14.9397 28.6771 18.339 25.2435C19.6146 23.955 21.3566 22.1873 22.2099 21.3152L23.7614 19.7296L19.0983 15.0655C16.5336 12.5003 14.4085 10.4014 14.3759 10.4014C14.3432 10.4014 12.4388 12.2888 10.1438 14.5957ZM41.4601 25.7068L37.9332 29.235L42.628 33.9287L47.3226 38.6224L50.8769 35.0669L54.4312 31.5114L49.7657 26.845C47.1999 24.2785 45.0749 22.1786 45.0437 22.1786C45.0125 22.1786 43.3999 23.7663 41.4601 25.7068Z" fill="#FCFFFE" fill-opacity="0.8"/>
</svg>