<svg width="23" height="29" viewBox="0 0 23 29" fill="none" xmlns="http://www.w3.org/2000/svg">
<path d="M11.7534 0.259766C8.8371 0.263206 6.04121 1.42324 3.97905 3.48539C1.9169 5.54755 0.75687 8.34344 0.75343 11.2598C0.749937 13.643 1.52841 15.9615 2.96943 17.8598C2.96943 17.8598 3.26943 18.2548 3.31843 18.3118L11.7534 28.2598L20.1924 18.3068C20.2364 18.2538 20.5374 17.8598 20.5374 17.8598L20.5384 17.8568C21.9787 15.9594 22.7568 13.6419 22.7534 11.2598C22.75 8.34344 21.59 5.54755 19.5278 3.48539C17.4656 1.42324 14.6698 0.263206 11.7534 0.259766ZM11.7534 15.2598C10.9623 15.2598 10.1889 15.0252 9.53115 14.5856C8.87335 14.1461 8.36066 13.5214 8.05791 12.7905C7.75516 12.0596 7.67595 11.2553 7.83029 10.4794C7.98463 9.70348 8.36559 8.99075 8.925 8.43134C9.48441 7.87193 10.1971 7.49096 10.9731 7.33662C11.749 7.18228 12.5533 7.2615 13.2842 7.56425C14.0151 7.867 14.6398 8.37969 15.0793 9.03749C15.5188 9.69528 15.7534 10.4686 15.7534 11.2598C15.7521 12.3202 15.3303 13.3369 14.5804 14.0867C13.8305 14.8366 12.8139 15.2584 11.7534 15.2598Z" fill="url(#paint0_linear_1_407)"/>
<defs>
<linearGradient id="paint0_linear_1_407" x1="11.7534" y1="0.259766" x2="11.7534" y2="28.2598" gradientUnits="userSpaceOnUse">
<stop stop-color="#0CD8AE"/>
<stop offset="1" stop-color="#0CD845"/>
</linearGradient>
</defs>
</svg>
