<svg width="45" height="60" viewBox="0 0 45 60" fill="none" xmlns="http://www.w3.org/2000/svg">
<path fill-rule="evenodd" clip-rule="evenodd" d="M20.0158 0.2862C6.64893 1.80924 -2.65984 15.4751 1.3938 27.6245C2.97762 32.3711 5.52751 35.968 14.6936 46.3848C17.7208 49.8252 19.7208 52.2609 21.0612 54.1397C22.0244 55.4899 22.3023 55.6975 22.7519 55.4029C23.0702 55.1944 23.1638 55.0802 24.636 53.1058C26.0349 51.2297 27.6124 49.3503 31.7001 44.69C41.4189 33.6095 44.1683 28.8677 44.4078 22.7736C44.927 9.56505 33.2292 -1.21942 20.0158 0.2862ZM24.7478 10.8679C28.9594 11.6659 32.2949 14.8775 33.5316 19.3255C33.8567 20.4949 33.8268 23.6076 33.4783 24.8776C31.7521 31.1677 25.2129 34.7528 19.025 32.802C15.3509 31.6436 12.4994 28.6556 11.4626 24.8776C11.114 23.6076 11.0841 20.4949 11.4093 19.3255C13.1191 13.1756 18.5968 9.70239 24.7478 10.8679ZM14.6974 50.5439C9.6112 52.2624 8.83133 55.904 13.079 58.101C18.8453 61.0835 29.9733 60.435 33.5266 56.9095C35.8306 54.6235 34.3615 51.933 30.012 50.473L29.0824 50.1609L28.8447 50.4437C27.827 51.6547 25.6743 54.393 25.1132 55.1902C24.0187 56.7455 22.9542 57.3515 21.8188 57.0656C21.1609 56.9 20.7613 56.5177 19.8158 55.1497C19.4165 54.5721 18.8114 53.7512 18.4711 53.3256C17.4942 52.1039 15.872 50.195 15.8078 50.1916C15.7757 50.1899 15.276 50.3485 14.6974 50.5439Z" fill="#EA2663"/>
</svg>