<svg width="27" height="22" viewBox="0 0 27 22" fill="none" xmlns="http://www.w3.org/2000/svg">
<path d="M26.3612 6.34602V17.7492C26.3612 18.8101 25.9398 19.8275 25.1897 20.5776C24.4395 21.3278 23.4221 21.7492 22.3612 21.7492H4.76123C3.70036 21.7492 2.68295 21.3278 1.9328 20.5776C1.18266 19.8275 0.76123 18.8101 0.76123 17.7492V6.34602L13.1548 13.6388C13.278 13.7114 13.4183 13.7497 13.5612 13.7497C13.7042 13.7497 13.8445 13.7114 13.9676 13.6388L26.3612 6.34602ZM22.3612 0.949219C23.3455 0.949064 24.2952 1.31179 25.0288 1.968C25.7623 2.62422 26.2282 3.52784 26.3372 4.50602L13.5612 12.0212L0.785231 4.50602C0.894284 3.52784 1.36015 2.62422 2.0937 1.968C2.82726 1.31179 3.777 0.949064 4.76123 0.949219H22.3612Z" fill="url(#paint0_linear_1_412)"/>
<defs>
<linearGradient id="paint0_linear_1_412" x1="13.5612" y1="0.949219" x2="13.5612" y2="21.7492" gradientUnits="userSpaceOnUse">
<stop stop-color="#0CD8AE"/>
<stop offset="1" stop-color="#0CD845"/>
</linearGradient>
</defs>
</svg>
