<svg width="58" height="58" viewBox="0 0 58 58" fill="none" xmlns="http://www.w3.org/2000/svg">
<path fill-rule="evenodd" clip-rule="evenodd" d="M11.0364 2.58282L12.9505 5.13048L12.6452 5.35444C3.13946 12.3294 -1.28036 24.1211 1.39597 35.3664C4.17712 47.0521 13.7264 55.5558 25.895 57.1829L27.0432 57.3364L27.1495 56.934C27.8602 54.2409 29.4977 47.4818 29.4558 47.4141C29.4257 47.3654 28.9334 47.2913 28.3617 47.2494C21.2596 46.729 15.3485 42.7377 12.4215 36.4863C9.33089 29.8857 10.5847 21.7392 15.5249 16.3225C16.7185 15.0136 18.9012 13.1338 19.0522 13.2847C19.0746 13.3071 20.047 14.5977 21.2129 16.1527L23.3331 18.98L23.4467 18.5503C23.6839 17.6541 28.0503 0.146581 28.0503 0.0922686C28.0503 0.0608008 23.7915 0.0351562 18.5863 0.0351562H9.12249L11.0364 2.58282ZM31.4148 0.472682C30.7041 3.1657 29.0666 9.92489 29.1085 9.99253C29.1386 10.0412 29.6309 10.1154 30.2025 10.1573C35.6545 10.5568 40.2175 12.8859 43.6102 17.0009C48.9229 23.445 49.2561 32.639 44.4236 39.4491C43.2743 41.0688 39.7881 44.3979 39.521 44.1308C39.4937 44.1035 38.5173 42.809 37.3513 41.2539L35.2312 38.4266L35.1176 38.8563C34.8804 39.7526 30.514 57.2601 30.514 57.3144C30.514 57.3458 34.7731 57.3715 39.9786 57.3715H49.4434L47.6153 54.9358C46.6099 53.5963 45.7538 52.4444 45.7129 52.3762C45.6692 52.3034 46.0646 51.9365 46.6711 51.487C48.7754 49.9275 51.8503 46.5966 53.3857 44.2132C57.6811 37.5457 58.9943 29.534 57.0569 21.8162C54.1625 10.2863 44.5791 1.80071 32.6692 0.222395L31.5211 0.0702076L31.4148 0.472682ZM27.8656 17.2699C23.098 18.6343 23.098 25.5868 27.8656 26.9176C28.5097 27.0975 28.5325 27.1147 28.2183 27.185C26.264 27.622 25.6683 27.8515 24.5934 28.5814C22.156 30.2366 20.8833 32.7736 20.8833 35.9776V37.2142H29.2821H37.681V35.9776C37.681 31.734 35.1527 28.3007 31.381 27.4228C30.9965 27.3333 30.5308 27.2248 30.346 27.1817L30.01 27.1033L30.4358 27.008C31.2555 26.8244 32.1313 26.3182 32.8164 25.6318C36.4837 21.9573 32.8619 15.8401 27.8656 17.2699Z" fill="#FCFFFE" fill-opacity="0.8"/>
</svg>