<svg width="46" height="45" viewBox="0 0 46 45" fill="none" xmlns="http://www.w3.org/2000/svg">
<path fill-rule="evenodd" clip-rule="evenodd" d="M22.5307 3.57367C20.6771 3.94847 19.1781 5.29103 18.702 7.0029C18.4545 7.89244 18.4591 29.74 18.7068 30.1136C19.0157 30.5796 19.7798 30.8012 20.261 30.5645C20.3566 30.5174 21.5233 29.7258 22.8537 28.8053L25.2728 27.1315L32.7245 27.0945C40.1636 27.0575 40.1771 27.0572 40.6998 26.8927C42.247 26.4061 43.4138 25.3433 43.9883 23.8972L44.2041 23.3539V15.317V7.28023L44.0168 6.76173C43.4884 5.29873 42.3127 4.20454 40.6998 3.67485L40.1762 3.50285L31.5966 3.48908C24.7195 3.47804 22.9206 3.49485 22.5307 3.57367ZM38.4442 9.57817C39.0383 9.89386 39.2124 10.5838 38.8389 11.1426C38.5097 11.6352 38.8573 11.6134 31.3346 11.6134H24.5313L24.2657 11.4468C23.5627 11.0055 23.5289 10.1321 24.1968 9.66698C24.5832 9.39802 24.2598 9.40899 31.5161 9.41906C38.0311 9.42817 38.1678 9.43128 38.4442 9.57817ZM38.497 14.3613C39.237 14.7817 39.2059 15.8273 38.4414 16.2403C38.0071 16.4749 24.7876 16.4774 24.3548 16.2429C23.5443 15.804 23.499 14.8538 24.2657 14.3726L24.5313 14.206H31.3775C38.1882 14.206 38.2252 14.2068 38.497 14.3613ZM30.7089 19.0763C31.5962 19.4862 31.5728 20.6611 30.67 21.0283C30.1109 21.2557 24.6379 21.2133 24.2967 20.979C23.528 20.451 23.5532 19.4628 24.345 19.0817C24.7645 18.8798 30.2734 18.8752 30.7089 19.0763ZM9.48318 21.4332C7.81786 21.7698 6.27982 22.8895 5.53989 24.3039C3.92967 27.3821 5.94421 31.0577 9.60401 31.719L10.1276 31.8137L9.72485 31.8664C6.56097 32.2802 3.99058 34.391 3.22365 37.2053C2.9516 38.2035 2.94806 40.5703 3.21809 40.9183C3.60582 41.4181 3.22269 41.395 10.7611 41.3731C18.3718 41.351 17.7298 41.3969 18.1786 40.8429C18.4055 40.5628 18.415 38.4447 18.1936 37.4697C17.5521 34.6435 15.1904 32.5171 12.0611 31.9482L11.1749 31.7872L11.5844 31.742C14.6734 31.4015 16.9251 28.3785 16.2599 25.4649C15.6286 22.7003 12.4805 20.8273 9.48318 21.4332Z" fill="#FCFFFE"/>
</svg>