<svg width="35" height="35" viewBox="0 0 35 35" fill="none" xmlns="http://www.w3.org/2000/svg">
<path fill-rule="evenodd" clip-rule="evenodd" d="M20.3599 0.810224C15.3083 1.3178 11.1941 4.00813 9.50894 7.90571C9.25123 8.50166 8.88368 9.75738 8.94794 9.82191C8.96806 9.84209 9.22929 9.78416 9.52841 9.69324C19.2849 6.72792 29.6113 12.7178 30.3213 21.7542L30.3662 22.3258H31.9403C33.7265 22.3258 33.8452 22.2987 34.1136 21.8291C34.4443 21.2503 34.3783 21.1143 32.9623 19.4576C32.3158 18.7012 31.7869 18.0521 31.7869 18.015C31.7869 17.978 31.924 17.7791 32.0915 17.573C36.8562 11.7115 33.3738 3.3323 25.3123 1.26111C23.8517 0.885861 21.6251 0.683117 20.3599 0.810224ZM13.1 10.965C6.93652 11.6511 2.21009 15.4425 1.1073 20.5852C0.900243 21.5508 0.898615 23.364 1.10391 24.387C1.46196 26.1715 2.225 27.8108 3.35071 29.2141L3.7154 29.6687L3.30845 30.1285C1.52551 32.1433 0.991399 32.7964 0.951225 33.0114C0.863716 33.4793 1.0711 33.9176 1.46984 34.1074C1.73875 34.2354 15.6919 34.2698 16.7788 34.1451C19.2238 33.8647 21.8702 32.7342 23.9144 31.097C27.7644 28.0136 29.274 23.5563 27.8828 19.3792C26.4459 15.0644 22.2966 11.9022 16.9626 11.0568C16.1893 10.9343 13.8712 10.8791 13.1 10.965ZM9.6124 20.59C10.7862 21.1661 11.0389 22.7604 10.1048 23.6974C9.14868 24.6566 7.5097 24.3597 6.96699 23.1292C6.22674 21.4504 7.96535 19.7816 9.6124 20.59ZM15.5375 20.59C16.7114 21.1661 16.9641 22.7604 16.03 23.6974C15.0738 24.6566 13.4348 24.3597 12.8921 23.1292C12.1519 21.4504 13.8905 19.7816 15.5375 20.59ZM21.4627 20.59C22.6365 21.1661 22.8892 22.7604 21.9551 23.6974C20.9989 24.6566 19.36 24.3597 18.8173 23.1292C18.077 21.4504 19.8156 19.7816 21.4627 20.59Z" fill="url(#paint0_linear_289_39)"/>
<defs>
<linearGradient id="paint0_linear_289_39" x1="17.6049" y1="0.772278" x2="17.6049" y2="34.2229" gradientUnits="userSpaceOnUse">
<stop stop-color="#0CD8AE"/>
<stop offset="1" stop-color="#0CD845"/>
</linearGradient>
</defs>
</svg>