<svg width="39" height="36" viewBox="0 0 39 36" fill="none" xmlns="http://www.w3.org/2000/svg">
<path fill-rule="evenodd" clip-rule="evenodd" d="M16.9526 0.859679C16.5972 0.984561 16.3918 1.16677 16.2634 1.47111C16.1177 1.81646 16.1188 5.54399 16.2647 5.89431C16.552 6.58398 17.4816 6.77271 18.031 6.25279C18.3621 5.93947 18.3919 5.6969 18.3668 3.51808C18.3447 1.6043 18.3357 1.49202 18.1879 1.29335C17.8795 0.878664 17.3887 0.706322 16.9526 0.859679ZM10.1973 3.33832C9.75491 3.61715 9.56388 4.13485 9.724 4.6214C9.84997 5.00435 11.8975 7.01461 12.2632 7.1145C13.0712 7.33512 13.8307 6.54089 13.5869 5.73042C13.5276 5.53287 13.2055 5.15941 12.3987 4.35213L11.2919 3.24481L10.8627 3.21715C10.5274 3.19549 10.3819 3.22204 10.1973 3.33832ZM23.2225 3.33313C22.6841 3.68182 20.9824 5.52523 20.9278 5.81882C20.7781 6.62447 21.5092 7.32496 22.28 7.1145C22.6686 7.00838 24.7056 4.99174 24.8237 4.59618C25.0309 3.90259 24.5936 3.26365 23.8801 3.21759C23.5408 3.19572 23.3951 3.2213 23.2225 3.33313ZM7.9941 9.72121C7.15092 9.81925 6.38225 10.168 5.71568 10.7551C4.98604 11.3978 5.02552 11.3872 3.18902 11.4291C1.40507 11.4698 1.25124 11.5064 0.905123 11.9722L0.749512 12.1816V19.4011V26.6205L0.905123 26.83C1.27297 27.325 1.32154 27.3336 3.89485 27.3583L6.22701 27.3806L10.3838 31.305C14.7491 35.4264 14.949 35.599 15.628 35.8345C17.4104 36.4526 19.552 35.1747 19.828 33.3285C19.8684 33.0582 19.9067 33.0013 20.0708 32.9678C21.5122 32.6739 22.594 31.6395 22.7831 30.3744C22.8254 30.0915 22.8624 30.0353 23.0277 30.0015C24.4692 29.7076 25.551 28.6732 25.7401 27.4081C25.7824 27.1252 25.8193 27.069 25.9847 27.0352C27.1856 26.7903 27.9698 26.1977 28.4563 25.1675C28.6779 24.6981 28.6929 24.6145 28.6929 23.8505C28.6929 22.8696 28.4767 22.3052 27.844 21.634L27.4684 21.2356L25.8259 21.1974C23.6446 21.1467 22.5309 20.8903 20.873 20.0571L20.2236 19.7308L19.7641 20.0595C17.4126 21.7413 14.3885 21.7863 12.014 20.1748C11.263 19.6651 9.87681 18.2281 9.60225 17.6746C9.02076 16.5023 9.1227 15.1739 9.87082 14.175C10.0386 13.9511 11.0956 13.0246 12.5456 11.8306C13.8641 10.7449 14.9525 9.83149 14.964 9.80093C15.0191 9.65536 9.13919 9.5881 7.9941 9.72121ZM20.0724 9.72069C18.5525 9.87613 18.0648 10.1691 14.6178 12.9973C11.5459 15.5177 11.507 15.5553 11.4511 16.0528C11.4003 16.5047 11.5184 16.688 12.4407 17.5896C13.5739 18.6975 14.5398 19.1389 15.8301 19.1389C16.9568 19.1389 17.7062 18.8252 19.1356 17.7547L20.1495 16.9955L20.725 17.3919C22.4794 18.6003 23.8278 18.9744 26.682 19.0446L28.5151 19.0897L29.1488 19.7645C29.9058 20.5706 30.14 20.9002 30.4797 21.6378C31.6546 24.1887 30.6045 27.2502 28.0728 28.6551C27.6706 28.8784 27.5662 28.9813 27.3681 29.3502C27.2402 29.5883 27.0719 29.879 26.9942 29.9961L26.8529 30.2092L27.1076 30.1561C28.1953 29.9295 29.1873 29.4585 30.2899 28.6454C31.8602 27.4874 32.3029 27.373 35.2143 27.373C36.5721 27.373 37.5108 27.3419 37.716 27.29C38.1031 27.1922 38.4589 26.8295 38.5241 26.4661C38.5481 26.3327 38.558 23.0641 38.5462 19.2026C38.5249 12.1975 38.5245 12.1811 38.3693 11.9722C37.9874 11.4584 38.0759 11.4702 34.3112 11.4291C30.4508 11.387 30.7515 11.4333 29.6446 10.7112C28.1636 9.74517 27.9331 9.70364 23.9248 9.68139C22.1155 9.67138 20.3819 9.6891 20.0724 9.72069Z" fill="#FCFFFE"/>
</svg>