<svg width="37" height="37" viewBox="0 0 37 37" fill="none" xmlns="http://www.w3.org/2000/svg">
<path fill-rule="evenodd" clip-rule="evenodd" d="M16.788 0.492203C3.23885 1.9758 -3.87703 17.1893 3.6794 28.5178C9.94054 37.9043 23.2566 39.2145 31.2548 31.2309C40.5845 21.9182 37.0659 5.96729 24.6925 1.48177C22.3462 0.631251 19.1606 0.232447 16.788 0.492203ZM12.5547 7.76739C13.2002 8.16515 15.8439 12.6196 15.8439 13.3093C15.8439 13.6127 15.7599 13.7098 14.6339 14.7071C13.7028 15.532 13.7166 15.5002 13.9678 16.2398C14.9913 19.2532 17.7869 22.0576 20.7908 23.0843C21.509 23.3299 21.5159 23.3279 22.0467 22.7194C23.169 21.4325 23.4213 21.2023 23.7096 21.2023C24.078 21.2023 25.5068 21.9272 27.0527 22.8984C29.2034 24.2496 29.5295 24.574 29.2749 25.1096C28.9779 25.7343 26.7976 27.7127 25.2348 28.7754L24.4768 29.2907L24.0227 29.2417C22.6823 29.0968 20.6464 28.3497 18.9838 27.3924C13.3566 24.1528 8.34525 17.6863 7.83187 13.0023L7.78242 12.5513L8.22664 11.8749C9.11817 10.5173 11.037 8.3302 11.7551 7.85308C12.1495 7.59099 12.2509 7.58009 12.5547 7.76739ZM21.2813 7.82632C25.7581 8.75035 29.0048 12.4467 29.3451 17.0074L29.3971 17.7053L28.6182 17.6838L27.8393 17.6622L27.7867 16.9482C27.4893 12.9089 24.1112 9.52022 20.0846 9.22183L19.3729 9.16907L19.3514 8.3877L19.3299 7.60632L20.0257 7.65856C20.4084 7.68727 20.9734 7.76281 21.2813 7.82632ZM20.7964 11.6825C23.3947 12.3104 25.4757 14.7926 25.4787 17.2676L25.4792 17.6998H24.73H23.9807L23.9794 17.4555C23.9677 15.2683 21.7593 13.0529 19.5789 13.0411L19.3354 13.0399V12.2882V11.5366L19.7662 11.5372C20.0032 11.5375 20.4668 11.6029 20.7964 11.6825Z" fill="#FCFFFE"/>
</svg>