<svg width="60" height="61" viewBox="0 0 60 61" fill="none" xmlns="http://www.w3.org/2000/svg">
<path fill-rule="evenodd" clip-rule="evenodd" d="M18.7453 1.22156C18.4448 1.46442 18.4267 1.57316 18.3631 3.5131L18.2963 5.54963L17.1608 5.85207C15.7555 6.22625 14.0802 6.92718 12.8635 7.65001L11.9389 8.19932L10.776 7.00987C8.70357 4.88998 8.75927 4.88731 6.4366 7.21639C4.14239 9.51716 4.15828 9.37128 5.99804 11.2382L7.42675 12.688L6.76015 13.8506C5.96157 15.2433 5.48707 16.3951 5.08056 17.928L4.77839 19.0675L2.74186 19.1343C0.0303213 19.2233 0.195301 19.0156 0.195301 22.3404C0.195301 25.6652 0.0303213 25.4575 2.74186 25.5465L4.77839 25.6133L5.09219 26.7962C5.46396 28.1984 6.13911 29.8011 6.89133 31.0674L7.4357 31.9836L6.00245 33.4381C4.15761 35.3103 4.14172 35.163 6.4366 37.4644C8.75607 39.7903 8.65254 39.7848 10.7818 37.6918C11.9103 36.5823 12.0148 36.5117 12.2737 36.6807C13.6228 37.5617 15.4785 38.3768 17.1608 38.8271L18.2963 39.1312L18.3631 41.1677C18.4521 43.8792 18.2443 43.7143 21.5692 43.7143C24.894 43.7143 24.6863 43.8792 24.7752 41.1677L24.842 39.1312L25.9815 38.829C27.5144 38.4225 28.6662 37.948 30.059 37.1494L31.2216 36.4828L32.6714 37.9115C34.5383 39.7513 34.3924 39.7672 36.6932 37.473C39.0108 35.1618 39.0065 35.2247 36.9865 33.1605L35.7442 31.891L36.201 31.1567C36.8745 30.0744 37.6833 28.1644 38.0433 26.8069L38.3599 25.6133L40.3965 25.5465C43.108 25.4575 42.943 25.6652 42.943 22.3404C42.943 19.0156 43.108 19.2233 40.3965 19.1343L38.3599 19.0675L38.0461 17.8846C37.6744 16.4824 36.9992 14.8797 36.247 13.6135L35.7026 12.6972L37.1359 11.2427C38.9822 9.36914 38.9983 9.51702 36.6954 7.21412C34.3932 4.91189 34.5398 4.92805 32.6714 6.76928L31.2216 8.19799L30.059 7.53139C28.6662 6.73281 27.5144 6.25831 25.9815 5.8518L24.842 5.54963L24.7752 3.5131C24.6863 0.801562 24.894 0.966541 21.5692 0.966541C19.2998 0.966541 19.0305 0.990854 18.7453 1.22156ZM43.7755 10.3533C41.9549 12.1802 41.9552 12.1643 43.7077 13.9481C44.4221 14.6752 45.1445 15.3048 45.3133 15.3471C46.2552 15.5836 47.0225 14.468 46.4653 13.6725C46.2473 13.3612 46.2474 13.3611 46.6991 13.4588C51.3387 14.4612 54.7502 18.4142 55.1746 23.279C55.322 24.9687 56.0811 25.5204 56.9977 24.6039C57.4057 24.1959 57.4059 24.195 57.3159 23.0862C56.8666 17.5485 53.2645 13.1297 47.9421 11.5873C47.3069 11.4033 46.6136 11.2527 46.4013 11.2527C45.9304 11.2527 45.9253 11.1981 46.3495 10.6941C46.772 10.1919 46.774 9.72809 46.3555 9.3097C45.7017 8.65579 45.3088 8.81476 43.7755 10.3533ZM23.278 13.9991C29.9103 15.3402 32.3695 23.5515 27.5748 28.3461C22.7803 33.1408 14.569 30.6816 13.2279 24.0492C12.012 18.0361 17.2649 12.7832 23.278 13.9991ZM19.9811 16.1394C15.1372 17.442 13.5494 23.4937 17.1504 26.9283C20.7336 30.3461 26.5271 28.6691 27.782 23.8509C28.9717 19.2835 24.5484 14.9111 19.9811 16.1394ZM45.329 35.4197C45.0562 35.6402 45.0045 35.8237 44.9468 36.7772L44.88 37.8797L44.0117 38.1724C43.5341 38.3334 42.8199 38.6293 42.4243 38.8299L41.7052 39.1949L41.0206 38.5188C39.8794 37.3917 39.703 37.4182 38.1751 38.9463C36.647 40.4743 36.6205 40.6506 37.7476 41.7918L38.4237 42.4765L38.0587 43.1955C37.8581 43.5911 37.5622 44.3054 37.4012 44.783L37.1085 45.6513L36.006 45.7181C34.464 45.8114 34.3935 45.9108 34.3935 47.989C34.3935 50.0672 34.464 50.1666 36.006 50.26L37.1085 50.3268L37.4012 51.1951C37.5622 51.6727 37.8581 52.387 38.0587 52.7825L38.4237 53.5016L37.7476 54.1863C36.6359 55.3119 36.66 55.4997 38.1048 56.9681C39.636 58.5241 39.895 58.5708 40.9904 57.4892L41.7052 56.7832L42.4243 57.1481C42.8199 57.3488 43.5341 57.6447 44.0117 57.8057L44.88 58.0983L44.9468 59.2008C45.0402 60.7428 45.1396 60.8134 47.2178 60.8134C49.296 60.8134 49.3954 60.7428 49.4888 59.2008L49.5556 58.0983L50.4239 57.8057C50.9015 57.6447 51.6157 57.3488 52.0113 57.1481L52.7304 56.7832L53.415 57.4593C54.5562 58.5863 54.7326 58.5599 56.2605 57.0318C57.7886 55.5038 57.8151 55.3275 56.688 54.1863L56.0119 53.5016L56.3769 52.7825C56.5775 52.387 56.8734 51.6727 57.0344 51.1951L57.3271 50.3268L58.4296 50.26C59.9716 50.1666 60.0421 50.0672 60.0421 47.989C60.0421 45.9108 59.9716 45.8114 58.4296 45.7181L57.3271 45.6513L57.0344 44.783C56.8734 44.3054 56.5775 43.5911 56.3769 43.1955L56.0119 42.4765L56.688 41.7918C57.7997 40.6662 57.7756 40.4784 56.3308 39.01C54.7996 37.454 54.5406 37.4072 53.4452 38.4889L52.7304 39.1949L52.0113 38.8299C51.6157 38.6293 50.9015 38.3334 50.4239 38.1724L49.5556 37.8797L49.4888 36.7772C49.3954 35.2353 49.296 35.1647 47.2178 35.1647C45.8687 35.1647 45.5994 35.2011 45.329 35.4197ZM9.0728 42.9735C8.67445 43.3717 8.64025 44.1483 8.94416 45.8911C9.84052 51.0313 13.9068 55.2316 18.9823 56.2602L20.0691 56.4805L19.7504 56.8509C19.054 57.6607 19.7786 58.8861 20.802 58.6292C21.3952 58.4804 23.7066 55.9663 23.7066 55.4699C23.7066 54.9735 21.3952 52.4594 20.802 52.3106C19.8601 52.0741 19.0927 53.1897 19.6501 53.9853C19.8563 54.28 19.8546 54.293 19.6167 54.2234C19.4783 54.1831 19.0945 54.0802 18.7638 53.9951C14.3762 52.865 10.9198 48.4535 10.8869 43.942C10.8812 43.1559 10.4586 42.6456 9.81354 42.6456C9.55331 42.6456 9.27946 42.7667 9.0728 42.9735ZM49.4892 43.129C52.8272 44.6921 53.6091 49.163 51.0004 51.7717C48.9357 53.8364 45.4782 53.8428 43.4211 51.7857C41.5353 49.8999 41.363 46.6961 43.0336 44.5832C44.4703 42.7663 47.3359 42.1207 49.4892 43.129ZM45.7791 45.0585C43.536 46.1963 43.3657 49.2497 45.463 50.7238C45.9984 51.1001 46.1209 51.1283 47.2178 51.1283C48.3147 51.1283 48.4372 51.1001 48.9726 50.7238C50.0444 49.9705 50.3571 49.3528 50.3571 47.989C50.3571 46.6254 50.0444 46.0075 48.9733 45.2548C48.1896 44.704 46.6629 44.6102 45.7791 45.0585Z" fill="#FCFFFE" fill-opacity="0.8"/>
</svg>