<svg width="60" height="60" viewBox="0 0 60 60" fill="none" xmlns="http://www.w3.org/2000/svg">
<path fill-rule="evenodd" clip-rule="evenodd" d="M44.2611 0.122629C43.6671 0.457433 42.7352 0.645276 40.2547 0.930036C36.4639 1.3654 34.9738 1.74872 33.3309 2.71167C29.8111 4.77453 28.6913 9.19606 30.7681 12.8306C31.6239 14.3283 32.7566 14.1216 32.9243 12.437C33.2617 9.04805 35.0618 6.30911 37.888 4.88461C38.492 4.58023 38.4967 4.60255 37.9786 5.32349C35.215 9.17034 33.7818 15.8913 33.3445 27.0545C33.2308 29.9597 33.2701 30.2654 33.8397 30.9142C34.4736 31.6362 35.2735 31.8324 36.128 31.4752C36.7686 31.2076 37.0679 30.8774 37.5675 29.887C38.0841 28.8628 38.6359 28.0951 39.4792 27.2268L40.074 26.6145L40.571 27.0726C42.3702 28.7311 45.3174 28.9642 47.3582 27.6096C48.3291 26.9653 49.1693 25.9789 50.7062 23.6798C51.4581 22.5552 52.1241 21.5666 52.1865 21.4828C52.2488 21.399 52.2752 21.3141 52.2453 21.294C51.077 20.5134 49.9729 19.7255 49.1363 19.075C46.3432 16.9039 43.7778 16.494 41.4649 17.8494C39.5375 18.9791 38.1751 21.6783 39.5368 21.6697C39.7122 21.6685 40.2522 21.5603 40.7368 21.4291C41.7438 21.1565 44.1349 21.0057 45.3646 21.1374C46.3492 21.2428 46.3108 21.2898 45.1176 21.4395C42.2542 21.7985 39.5609 23.1022 37.5943 25.0812L36.7426 25.9382L36.7431 25.1265C36.7439 23.6748 37.137 18.998 37.4233 17.0328L37.5087 16.4469L38.1536 16.3552C40.0573 16.0843 42.2675 14.3363 43.5581 12.0806C45.0635 9.44969 45.4915 6.45584 44.9584 2.28547C44.6572 -0.0705005 44.6491 -0.0959926 44.2611 0.122629ZM24.7602 17.2495C23.2499 17.6125 22.6422 17.9476 20.3094 19.7046C19.3798 20.4046 18.4621 21.0587 18.2701 21.158L17.9211 21.3385L18.215 21.652C18.3767 21.8243 18.9364 22.6419 19.4587 23.4688C21.8872 27.3129 23.4025 28.4879 25.9269 28.4839C29.349 28.4785 31.9361 25.6299 30.2564 23.7168C29.4648 22.8153 26.6517 21.7096 24.4077 21.4178C23.3794 21.2842 23.3286 21.2658 23.7616 21.1839C25.2792 20.8968 28.1305 21.1318 29.7765 21.6796C31.6038 22.2876 31.9274 21.4047 30.6037 19.4224C29.4131 17.6394 26.9494 16.7233 24.7602 17.2495ZM19.0039 32.1938C17.9785 32.3787 16.4946 32.8571 15.6558 33.2732C13.8764 34.1557 13.7147 34.3012 5.35724 42.5337L0.814819 47.0081L7.25399 53.4464L13.693 59.8846L15.8175 56.7012L17.9419 53.5178L28.7813 53.4793C38.4197 53.4451 39.6926 53.4195 40.2687 53.2479C41.5555 52.8647 42.2917 52.5359 43.122 51.9735C44.0246 51.3623 60.2465 36.9818 60.6299 36.4529C61.7213 34.9481 60.0374 33.1657 57.5242 33.1657C55.4698 33.1657 55.274 33.2808 46.8903 39.416L39.5549 44.784L35.2552 44.8711L30.9553 44.9581L29.8263 43.8289L28.6971 42.6998L33.0429 42.6984C36.4337 42.6973 37.5274 42.6601 38.0195 42.5291C42.1713 41.4241 42.9198 36.6228 39.2292 34.769C38.1273 34.2156 37.352 34.1287 33.4533 34.122C29.2694 34.1148 28.6499 34.0346 26.8503 33.2658C24.113 32.0965 21.513 31.7413 19.0039 32.1938Z" fill="#FCFFFE" fill-opacity="0.8"/>
</svg>